<svg id="visual" viewBox="0 0 900 600" width="900" height="600" xmlns="http://www.w3.org/2000/svg" xmlns:xlink="http://www.w3.org/1999/xlink" version="1.1"><g transform="translate(460.4562365548735 284.41932381671563)"><path d="M85.9 -104.1C131.2 -104.5 201.6 -114.4 219.7 -94.5C237.7 -74.7 203.5 -25.2 187 20.5C170.5 66.2 171.8 108.1 157 149.8C142.2 191.4 111.4 232.9 76.6 228.2C41.8 223.6 3 172.7 -32.8 146.4C-68.7 120.1 -101.6 118.3 -145.1 105.1C-188.7 91.9 -242.8 67.3 -245.6 36.4C-248.3 5.5 -199.6 -31.7 -176.6 -79.9C-153.5 -128.1 -155.9 -187.3 -130.8 -196.2C-105.6 -205 -52.8 -163.5 -16.3 -138.2C20.3 -112.9 40.6 -103.8 85.9 -104.1" fill="#BB004B"></path></g></svg>