<svg xmlns="http://www.w3.org/2000/svg" xmlns:xlink="http://www.w3.org/1999/xlink" version="1.1" width="1000" height="1000" viewBox="0 0 1000 1000" xml:space="preserve">
<desc>Created with Fabric.js 3.5.0</desc>
<defs>
</defs>
<rect x="0" y="0" width="100%" height="100%" fill="rgba(255,255,255,0)"/>
<g transform="matrix(1.7339 0 0 1.98 500.0225 441.3115)" id="137667">
<g style="" vector-effect="non-scaling-stroke">
		<g transform="matrix(1 0 0 1 -450 -450)">
<rect style="stroke: none; stroke-width: 1; stroke-dasharray: none; stroke-linecap: butt; stroke-dashoffset: 0; stroke-linejoin: miter; stroke-miterlimit: 4; is-custom-font: none; font-file-url: none; fill: rgb(255,255,255); fill-rule: nonzero; opacity: 1;" x="-50" y="-50" rx="0" ry="0" width="100" height="100"/>
</g>
		<g transform="matrix(-1.2095 0.6206 -0.5839 -1.138 0.0119 -0.0142)" id="387237">
<path style="stroke: none; stroke-width: 1; stroke-dasharray: none; stroke-linecap: butt; stroke-dashoffset: 0; stroke-linejoin: miter; stroke-miterlimit: 4; is-custom-font: none; font-file-url: none; fill: rgb(187,0,75); fill-rule: nonzero; opacity: 1;" vector-effect="non-scaling-stroke" transform=" translate(10.4562, -15.5807)" d="M 85.9 -104.1 C 131.2 -104.5 201.6 -114.4 219.7 -94.5 C 237.7 -74.7 203.5 -25.2 187 20.5 C 170.5 66.2 171.8 108.1 157 149.8 C 142.2 191.4 111.4 232.9 76.6 228.2 C 41.8 223.6 3 172.7 -32.8 146.4 C -68.7 120.1 -101.6 118.3 -145.1 105.1 C -188.7 91.9 -242.8 67.3 -245.6 36.4 C -248.3 5.5 -199.6 -31.7 -176.6 -79.9 C -153.5 -128.1 -155.9 -187.3 -130.8 -196.2 C -105.6 -205 -52.8 -163.5 -16.3 -138.2 C 20.3 -112.9 40.6 -103.8 85.9 -104.1" stroke-linecap="round"/>
</g>
</g>
</g>
</svg>